<?xml version="1.0" encoding="UTF-8"?>
<svg width="16px" height="16px" viewBox="0 0 16 16" version="1.1" xmlns="http://www.w3.org/2000/svg" xmlns:xlink="http://www.w3.org/1999/xlink">
    <!-- Generator: Sketch 42 (36781) - http://www.bohemiancoding.com/sketch -->
    <title>Menu Icon</title>
    <desc>Created with Sketch.</desc>
    <defs></defs>
    <g id="Book-Brawl-UI" stroke="none" stroke-width="1" fill="none" fill-rule="evenodd">
        <g id="2.-BB_Home_Menu" transform="translate(-16.000000, -14.000000)" fill="#005876">
            <g id="Top-Nav">
                <g id="Menu-Icon" transform="translate(16.000000, 14.000000)">
                    <path d="M0,0.888888889 C0,0.397969111 0.395507812,0 0.883020163,0 L15.1169798,0 C15.6046584,0 16,0.394546509 16,0.888888889 C16,1.37980867 15.6044922,1.77777778 15.1169798,1.77777778 L0.883020163,1.77777778 C0.395341593,1.77777778 0,1.38323127 0,0.888888889 Z M0,8 C0,7.50908022 0.395507812,7.11111111 0.883020163,7.11111111 L15.1169798,7.11111111 C15.6046584,7.11111111 16,7.50565762 16,8 C16,8.49091978 15.6044922,8.88888889 15.1169798,8.88888889 L0.883020163,8.88888889 C0.395341593,8.88888889 0,8.49434238 0,8 Z M0,15.1111111 C0,14.6201913 0.395507812,14.2222222 0.883020163,14.2222222 L15.1169798,14.2222222 C15.6046584,14.2222222 16,14.6167687 16,15.1111111 C16,15.6020309 15.6044922,16 15.1169798,16 L0.883020163,16 C0.395341593,16 0,15.6054535 0,15.1111111 Z"></path>
                </g>
            </g>
        </g>
    </g>
</svg>