<?xml version="1.0" encoding="utf-8"?>
<!-- Generator: Adobe Illustrator 16.0.3, SVG Export Plug-In . SVG Version: 6.00 Build 0)  -->
<!DOCTYPE svg PUBLIC "-//W3C//DTD SVG 1.1//EN" "http://www.w3.org/Graphics/SVG/1.1/DTD/svg11.dtd">
<svg version="1.1" id="Layer_1" xmlns="http://www.w3.org/2000/svg" xmlns:xlink="http://www.w3.org/1999/xlink" x="0px" y="0px"
	 width="16px" height="16px" viewBox="0 0 16 16" enable-background="new 0 0 16 16" xml:space="preserve">
<title>Search Icon</title>
<desc>Created with Sketch.</desc>
<g id="Book-Brawl-UI">
	<g id="_x32_.-BB_x5F_Home_x5F_Menu" transform="translate(-288.000000, -14.000000)">
		<g id="Top-Nav">
			<g id="Search-Icon" transform="translate(288.000000, 14.000000)">
				<path fill="#FFFFFF" d="M7,12c-2.76,0-5-2.24-5-5s2.24-5,5-5s5,2.24,5,5S9.76,12,7,12 M15.21,13.79l-2.61-2.601
					C13.48,10.02,14,8.57,14,7c0-3.87-3.13-7-7-7S0,3.13,0,7s3.13,7,7,7c1.57,0,3.02-0.52,4.189-1.4l2.601,2.61
					c0.2,0.19,0.45,0.29,0.71,0.29s0.51-0.1,0.71-0.29C15.6,14.82,15.6,14.18,15.21,13.79"/>
			</g>
		</g>
	</g>
</g>
</svg>
