<?xml version="1.0" encoding="UTF-8"?>
<svg width="16px" height="16px" viewBox="0 0 16 16" version="1.1" xmlns="http://www.w3.org/2000/svg" xmlns:xlink="http://www.w3.org/1999/xlink">
    <!-- Generator: Sketch 42 (36781) - http://www.bohemiancoding.com/sketch -->
    <title>Search Icon</title>
    <desc>Created with Sketch.</desc>
    <defs></defs>
    <g id="Book-Brawl-UI" stroke="none" stroke-width="1" fill="none" fill-rule="evenodd">
        <g id="2.-BB_Home_Menu" transform="translate(-288.000000, -14.000000)" fill="#005876">
            <g id="Top-Nav">
                <g id="Search-Icon" transform="translate(288.000000, 14.000000)">
                    <path d="M7,12 C4.24,12 2,9.76 2,7 C2,4.24 4.24,2 7,2 C9.76,2 12,4.24 12,7 C12,9.76 9.76,12 7,12 M15.21,13.79 L12.6,11.19 C13.48,10.02 14,8.57 14,7 C14,3.13 10.87,0 7,0 C3.13,0 0,3.13 0,7 C0,10.87 3.13,14 7,14 C8.57,14 10.02,13.48 11.19,12.6 L13.79,15.21 C13.99,15.4 14.24,15.5 14.5,15.5 C14.76,15.5 15.01,15.4 15.21,15.21 C15.6,14.82 15.6,14.18 15.21,13.79"></path>
                </g>
            </g>
        </g>
    </g>
</svg>