<?xml version="1.0" encoding="utf-8"?>
<!-- Generator: Adobe Illustrator 16.0.3, SVG Export Plug-In . SVG Version: 6.00 Build 0)  -->
<!DOCTYPE svg PUBLIC "-//W3C//DTD SVG 1.1//EN" "http://www.w3.org/Graphics/SVG/1.1/DTD/svg11.dtd">
<svg version="1.1" id="Layer_1" xmlns="http://www.w3.org/2000/svg" xmlns:xlink="http://www.w3.org/1999/xlink" x="0px" y="0px"
	 width="16px" height="16px" viewBox="0 0 16 16" enable-background="new 0 0 16 16" xml:space="preserve">
<title>Combined Shape</title>
<desc>Created with Sketch.</desc>
<g id="Book-Brawl-UI">
	<g id="_x32_.-BB_x5F_Home_x5F_Desktop" transform="translate(-8.000000, -474.000000)">
		<g id="Side-Nav" transform="translate(0.000000, -16.000000)">
			<g id="Advance-Search" transform="translate(8.000000, 480.000000)">
				<g id="Advanced-Search" transform="translate(0.000000, 10.000000)">
					<g id="Page-1">
						<path id="Combined-Shape" fill="#FFFFFF" d="M3.5,3h-3C0.224,3,0,2.776,0,2.5v-3C0-0.776,0.224-1,0.5-1h3
							C3.776-1,4-0.776,4-0.5v3C4,2.776,3.776,3,3.5,3z M3.5,9h-3C0.224,9,0,8.775,0,8.5v-3C0,5.224,0.224,5,0.5,5h3
							C3.776,5,4,5.224,4,5.5v3C4,8.775,3.776,9,3.5,9z M3.5,15h-3C0.224,15,0,14.775,0,14.5v-3C0,11.225,0.224,11,0.5,11h3
							C3.776,11,4,11.225,4,11.5v3C4,14.775,3.776,15,3.5,15z M6.5,3C6.224,3,6,2.776,6,2.5v-3C6-0.776,6.224-1,6.5-1h9
							C15.775-1,16-0.776,16-0.5v3C16,2.776,15.775,3,15.5,3H6.5z M6.5,9C6.224,9,6,8.775,6,8.5v-3C6,5.224,6.224,5,6.5,5h9
							C15.775,5,16,5.224,16,5.5v3C16,8.775,15.775,9,15.5,9H6.5z M6.5,15C6.224,15,6,14.775,6,14.5v-3C6,11.225,6.224,11,6.5,11h9
							c0.275,0,0.5,0.225,0.5,0.5v3c0,0.275-0.225,0.5-0.5,0.5H6.5z"/>
					</g>
				</g>
			</g>
		</g>
	</g>
</g>
</svg>
