<?xml version="1.0" encoding="UTF-8"?>
<svg width="16px" height="16px" viewBox="0 0 16 16" version="1.1" xmlns="http://www.w3.org/2000/svg" xmlns:xlink="http://www.w3.org/1999/xlink">
    <!-- Generator: Sketch 42 (36781) - http://www.bohemiancoding.com/sketch -->
    <title>Combined Shape</title>
    <desc>Created with Sketch.</desc>
    <defs></defs>
    <g id="Book-Brawl-UI" stroke="none" stroke-width="1" fill="none" fill-rule="evenodd">
        <g id="2.-BB_Home_Desktop" transform="translate(-8.000000, -474.000000)" fill="#005876">
            <g id="Side-Nav" transform="translate(0.000000, -16.000000)">
                <g id="Advance-Search" transform="translate(8.000000, 480.000000)">
                    <g id="Advanced-Search" transform="translate(0.000000, 10.000000)">
                        <g id="Page-1">
                            <path d="M3.5,4 L0.5,4 C0.224,4 0,3.776 0,3.5 L0,0.5 C0,0.224 0.224,0 0.5,0 L3.5,0 C3.776,0 4,0.224 4,0.5 L4,3.5 C4,3.776 3.776,4 3.5,4 Z M3.5,10 L0.5,10 C0.224,10 0,9.776 0,9.5 L0,6.5 C0,6.224 0.224,6 0.5,6 L3.5,6 C3.776,6 4,6.224 4,6.5 L4,9.5 C4,9.776 3.776,10 3.5,10 Z M3.5,16 L0.5,16 C0.224,16 0,15.776 0,15.5 L0,12.5 C0,12.224 0.224,12 0.5,12 L3.5,12 C3.776,12 4,12.224 4,12.5 L4,15.5 C4,15.776 3.776,16 3.5,16 Z M6.5,4 C6.224,4 6,3.776 6,3.5 L6,0.5 C6,0.224 6.224,0 6.5,0 L15.5,0 C15.776,0 16,0.224 16,0.5 L16,3.5 C16,3.776 15.776,4 15.5,4 L6.5,4 Z M6.5,10 C6.224,10 6,9.776 6,9.5 L6,6.5 C6,6.224 6.224,6 6.5,6 L15.5,6 C15.776,6 16,6.224 16,6.5 L16,9.5 C16,9.776 15.776,10 15.5,10 L6.5,10 Z M6.5,16 C6.224,16 6,15.776 6,15.5 L6,12.5 C6,12.224 6.224,12 6.5,12 L15.5,12 C15.776,12 16,12.224 16,12.5 L16,15.5 C16,15.776 15.776,16 15.5,16 L6.5,16 Z" id="Combined-Shape"></path>
                        </g>
                    </g>
                </g>
            </g>
        </g>
    </g>
</svg>