<?xml version="1.0" encoding="UTF-8"?>
<svg width="14px" height="16px" viewBox="0 0 14 16" version="1.1" xmlns="http://www.w3.org/2000/svg" xmlns:xlink="http://www.w3.org/1999/xlink">
    <!-- Generator: Sketch 42 (36781) - http://www.bohemiancoding.com/sketch -->
    <title>Browse Icon</title>
    <desc>Created with Sketch.</desc>
    <defs></defs>
    <g id="Book-Brawl-UI" stroke="none" stroke-width="1" fill="none" fill-rule="evenodd">
        <g id="2.-BB_Home_Desktop" transform="translate(-9.000000, -222.000000)" fill="#005876">
            <g id="Side-Nav" transform="translate(0.000000, -16.000000)">
                <g id="Browse" transform="translate(0.000000, 228.000000)">
                    <g id="Browse-Icon" transform="translate(8.000000, 10.000000)">
                        <path d="M3,2 L6,2 L6,7 L4.5,6 L3,7 L3,2 Z M14,2 L14,13.5 C14,13.78 13.78,14 13.5,14 L3.5,14 C3.22,14 3,13.78 3,13.5 C3,13.22 3.22,13 3.5,13 L12.5,13 C12.78,13 13,12.78 13,12.5 L13,0.5 C13,0.22 12.78,0 12.5,0 L2,0 C1.45,0 1,0.45 1,1 L1,15 C1,15.55 1.45,16 2,16 L14,16 C14.55,16 15,15.55 15,15 L15,3 C15,2.45 14.55,2 14,2 L14,2 Z" id="Page-1"></path>
                    </g>
                </g>
            </g>
        </g>
    </g>
</svg>