<?xml version="1.0" encoding="utf-8"?>
<!-- Generator: Adobe Illustrator 16.0.3, SVG Export Plug-In . SVG Version: 6.00 Build 0)  -->
<!DOCTYPE svg PUBLIC "-//W3C//DTD SVG 1.1//EN" "http://www.w3.org/Graphics/SVG/1.1/DTD/svg11.dtd">
<svg version="1.1" id="Layer_1" xmlns="http://www.w3.org/2000/svg" xmlns:xlink="http://www.w3.org/1999/xlink" x="0px" y="0px"
	 width="14px" height="16px" viewBox="0 0 14 16" enable-background="new 0 0 14 16" xml:space="preserve">
<title>Browse Icon</title>
<desc>Created with Sketch.</desc>
<g id="Book-Brawl-UI">
	<g id="_x32_.-BB_x5F_Home_x5F_Desktop" transform="translate(-9.000000, -222.000000)">
		<g id="Side-Nav" transform="translate(0.000000, -16.000000)">
			<g id="Browse" transform="translate(0.000000, 228.000000)">
				<g id="Browse-Icon" transform="translate(8.000000, 10.000000)">
					<path id="Page-1" fill="#FFFFFF" d="M3,2h3v5L4.5,6L3,7V2z M14,2v11.5c0,0.28-0.221,0.5-0.5,0.5h-10C3.22,14,3,13.78,3,13.5
						S3.22,13,3.5,13h9c0.279,0,0.5-0.22,0.5-0.5v-12C13,0.22,12.779,0,12.5,0H2C1.45,0,1,0.45,1,1v14c0,0.55,0.45,1,1,1h12
						c0.55,0,1-0.45,1-1V3C15,2.45,14.55,2,14,2L14,2z"/>
				</g>
			</g>
		</g>
	</g>
</g>
</svg>
