<?xml version="1.0" encoding="utf-8"?>
<!-- Generator: Adobe Illustrator 16.0.3, SVG Export Plug-In . SVG Version: 6.00 Build 0)  -->
<!DOCTYPE svg PUBLIC "-//W3C//DTD SVG 1.1//EN" "http://www.w3.org/Graphics/SVG/1.1/DTD/svg11.dtd">
<svg version="1.1" id="Layer_1" xmlns="http://www.w3.org/2000/svg" xmlns:xlink="http://www.w3.org/1999/xlink" x="0px" y="0px"
	 width="16px" height="16px" viewBox="0 0 16 16" enable-background="new 0 0 16 16" xml:space="preserve">
<title>Dashboard Icon</title>
<desc>Created with Sketch.</desc>
<g id="Book-Brawl-UI">
	<g id="_x32_.-BB_x5F_Home_x5F_Desktop" transform="translate(-8.000000, -402.000000)">
		<g id="Side-Nav" transform="translate(0.000000, -16.000000)">
			<g id="Dashboard" transform="translate(4.000000, 408.000000)">
				<g id="Dashboard-Icon" transform="translate(4.000000, 10.000000)">
					<path id="Combined-Shape" fill="#FFFFFF" d="M6.5,7h-6C0.224,7,0,6.776,0,6.5v-6C0,0.224,0.224,0,0.5,0h6
						C6.776,0,7,0.224,7,0.5v6C7,6.776,6.776,7,6.5,7z M15.5,7h-6C9.225,7,9,6.776,9,6.5v-6C9,0.224,9.225,0,9.5,0h6
						C15.775,0,16,0.224,16,0.5v6C16,6.776,15.775,7,15.5,7z M6.5,16h-6C0.224,16,0,15.775,0,15.5v-6C0,9.225,0.224,9,0.5,9h6
						C6.776,9,7,9.225,7,9.5v6C7,15.775,6.776,16,6.5,16z M15.5,16h-6C9.225,16,9,15.775,9,15.5v-6C9,9.225,9.225,9,9.5,9h6
						C15.775,9,16,9.225,16,9.5v6C16,15.775,15.775,16,15.5,16z"/>
				</g>
			</g>
		</g>
	</g>
</g>
</svg>
