<?xml version="1.0" encoding="UTF-8"?>
<svg width="16px" height="16px" viewBox="0 0 16 16" version="1.1" xmlns="http://www.w3.org/2000/svg" xmlns:xlink="http://www.w3.org/1999/xlink">
    <!-- Generator: Sketch 42 (36781) - http://www.bohemiancoding.com/sketch -->
    <title>Sign Up Icon</title>
    <desc>Created with Sketch.</desc>
    <defs></defs>
    <g id="Book-Brawl-UI" stroke="none" stroke-width="1" fill="none" fill-rule="evenodd">
        <g id="1.1.-BB_Sign_Up_Desktop" transform="translate(-8.000000, -293.000000)" fill="#005876">
            <g id="Side-Nav">
                <g id="Form" transform="translate(0.000000, 284.000000)">
                    <g id="Sign-Up-Icon" transform="translate(6.000000, 9.000000)">
                        <path d="M4,4 L16,4 L16,2 L4,2 L4,4 Z M14,8 L16,8 L16,6 L14,6 L14,8 Z M4,8 L12,8 L12,6 L4,6 L4,8 Z M17,0 L3,0 C2.45,0 2,0.45 2,1 L2,16 L5,12 L17,12 C17.55,12 18,11.55 18,11 L18,1 C18,0.45 17.55,0 17,0 L17,0 Z" id="Page-1"></path>
                    </g>
                </g>
            </g>
        </g>
    </g>
</svg>