<?xml version="1.0" ?><!DOCTYPE svg  PUBLIC '-//W3C//DTD SVG 1.1//EN'  'http://www.w3.org/Graphics/SVG/1.1/DTD/svg11.dtd'><svg enable-background="new 0 0 24 24" height="24px" id="Layer_1" version="1.1" viewBox="0 0 24 24" width="24px" xml:space="preserve" xmlns="http://www.w3.org/2000/svg" xmlns:xlink="http://www.w3.org/1999/xlink"><g id="icon"><circle cx="12" cy="12" fill="#FCC34F" r="11"/><path d="M12.0242,5.4586c-1.6608,0,-3.5158,0.6198,-3.9065,2.6736c-0.0393,0.2186,0.1181,0.3341,0.2606,0.366l1.6926,0.1816c0.1572,-0.0074,0.2751,-0.162,0.3046,-0.3192c0.1449,-0.7075,0.7398,-1.0484,1.4056,-1.0484c0.3587,0,0.7643,0.1321,0.9781,0.4539c0.2432,0.3587,0.2108,0.8499,0.2108,1.2651v0.2255c-1.0122,0.1155,-2.3344,0.1915,-3.2827,0.6091c-1.0933,0.4717,-1.8625,1.4347,-1.8625,2.8522c0,1.8155,1.143,2.7234,2.6121,2.7234c1.2431,0,1.9234,-0.2931,2.8815,-1.2709c0.3194,0.4594,0.4217,0.684,1.0015,1.1655c0.1302,0.0688,0.2974,0.0622,0.4129,-0.041l0.0059,0.0029c0.3489,-0.3095,0.982,-0.8624,1.3383,-1.1596c0.1425,-0.1179,0.1189,-0.3055,0.0059,-0.4627c-0.3194,-0.4422,-0.6589,-0.8013,-0.6589,-1.6194V9.3328c0,-1.1522,0.0799,-2.211,-0.7702,-3.0045C13.9832,5.6846,12.8743,5.4585,12.0242,5.4586L12.0242,5.4586zM12.9701,10.6594v0.3778c0,0.6805,0.0189,1.2464,-0.325,1.8507c-0.2776,0.4913,-0.7181,0.7936,-1.2094,0.7936c-0.6707,0,-1.0601,-0.5108,-1.0601,-1.2651C10.3755,10.9276,11.7073,10.6594,12.9701,10.6594L12.9701,10.6594zM17.9952,14.6654c-0.4917,0.0083,-1.0743,0.1417,-1.514,0.5213c-0.136,0.1159,-0.1129,0.2774,0.0381,0.2548c0.4956,-0.0721,1.6021,-0.2349,1.798,0.0732c0.1971,0.3095,-0.2186,1.5812,-0.4041,2.1494c-0.0565,0.1724,0.0636,0.2442,0.1903,0.1142c0.8264,-0.8466,1.038,-2.6198,0.8697,-2.8757C18.8891,14.7754,18.4868,14.6571,17.9952,14.6654L17.9952,14.6654zM5.1045,15.0022c-0.1206,-0.0082,-0.1815,0.1601,-0.0644,0.2899c1.8336,2.0311,4.2538,3.2534,6.9461,3.2534c1.9201,0,4.1512,-0.744,5.6898,-2.1348c0.2547,-0.2318,0.0379,-0.5749,-0.2226,-0.4393c-1.7241,0.8975,-3.5987,1.3295,-5.3033,1.3295c-2.5275,0,-4.976,-0.8487,-6.9549,-2.2607C5.1628,15.0169,5.1323,15.0041,5.1045,15.0022L5.1045,15.0022z" fill="#FFFFFF"/><path d="M4.2218,19.7782C6.2124,21.7688,8.9624,23,12,23c6.0751,0,11,-4.9249,11,-11c0,-3.0376,-1.2312,-5.7876,-3.2218,-7.7782L4.2218,19.7782z" fill="#231F20" opacity="0.1"/></g></svg>