<?xml version="1.0" ?><!DOCTYPE svg  PUBLIC '-//W3C//DTD SVG 1.1//EN'  'http://www.w3.org/Graphics/SVG/1.1/DTD/svg11.dtd'><svg enable-background="new 0 0 24 24" height="24px" id="Layer_1" version="1.1" viewBox="0 0 24 24" width="24px" xml:space="preserve" xmlns="http://www.w3.org/2000/svg" xmlns:xlink="http://www.w3.org/1999/xlink"><g id="icon"><circle cx="12" cy="12" fill="#21759B" r="11"/><path d="M12.0019,18.6533c-3.6862,0,-6.6794,-2.9379,-6.6516,-6.6516c0.0278,-3.7137,2.8269,-6.6516,6.6516,-6.6516c3.8249,0,6.6516,2.9932,6.6516,6.6516S15.6881,18.6533,12.0019,18.6533zM13.9696,17.6278l-1.8845,-5.0719l-1.7739,5.1828C11.614,18.0438,12.5008,18.1267,13.9696,17.6278L13.9696,17.6278zM9.3691,17.3508L6.5421,9.6183c-0.3882,0.8315,-0.4711,1.5244,-0.5267,2.3834C6.0432,14.2742,7.318,16.3528,9.3691,17.3508zM17.9608,12.0017c0.0275,-1.4688,-0.6374,-2.6328,-0.693,-2.7991c0.0556,1.1365,-0.1109,1.7183,-0.3048,2.3559l-1.9401,5.5707c2.439,-1.4691,2.9098,-3.6587,2.9654,-5.1275H17.9608L17.9608,12.0017zM11.8081,11.7523l-0.9424,-2.5775l-0.693,-0.0553c-0.277,-0.1941,-0.1109,-0.4989,0.0831,-0.4989c1.2472,0.0831,1.9399,0.0831,3.1873,0c0.305,0,0.3879,0.4435,0.0275,0.4989l-0.6652,0.0553l2.1615,6.3744l1.0253,-3.4921c0.0556,-1.5242,-0.3604,-1.6904,-0.9146,-2.7991c-0.4435,-0.8593,0.0278,-1.6907,0.8871,-1.7183c-0.6932,-0.6652,-2.1064,-1.4966,-3.9634,-1.5244s-3.8247,0.9146,-4.9887,2.6885l2.0511,-0.0553c0.2494,0.1109,0.1385,0.4711,0,0.4989l-0.7205,0.0553l2.1618,6.4853L11.8081,11.7523L11.8081,11.7523z" fill="#FFFFFF"/><path d="M4.2218,19.7782C6.2124,21.7688,8.9624,23,12,23c6.0751,0,11,-4.9249,11,-11c0,-3.0376,-1.2312,-5.7876,-3.2218,-7.7782L4.2218,19.7782z" fill="#231F20" opacity="0.1"/></g></svg>